PathFileType	4	(X/Y/Z)	C:/Users/beibeiliu/ov580/test_trc/capture2\sequence.16_training_dense_left.trc
DataRate	CameraRate	NumFrames	NumMarkers	Units	OrigDataRate	OrigDataStartFrame	OrigNumFrames
120	120	21	19	mm	120	201	400
Frame#	Time	ThumbCMC			ThumbMCP			ThumbIP			ThumbTip			IndexMCP			IndexPIP			IndexTip			MiddleMCP			MiddlePIP			MiddleTip			RingMCP			RingPIP			RingTip			PinkyMCP			PinkyPIP			PinkyTip			BackHand1			BackHand2			BackHand3	
		X0	Y0	Z0	X1	Y1	Z1	X2	Y2	Z2	X3	Y3	Z3	X4	Y4	Z4	X5	Y5	Z5	X6	Y6	Z6	X7	Y7	Z7	X8	Y8	Z8	X9	Y9	Z9	X10	Y10	Z10	X11	Y11	Z11	X12	Y12	Z12	X13	Y13	Z13	X14	Y14	Z14	X15	Y15	Z15	X16	Y16	Z16	X17	Y17	Z17	X18	Y18	Z18	
200	1.66667	-114.118	36.2948	-15.8045	-95.8379	25.3115	-29.315	-71.0205	17.5155	-36.0501	-53.0454	14.5261	-44.8434	-78.0071	68.2036	-76.2707	-64.6862	67.2137	-93.8356	-52.0798	71.0645	-118.552	-103.392	61.0516	-93.1653	-114.249	27.9185	-101.969	-132.161	27.1556	-71.0361	-119.948	61.9921	-94.5412	-134.713	33.8581	-97.9515	-139.973	32.2248	-62.5949	-138.715	67.798	-94.9079	-147.189	39.9707	-90.9737	-149.734	42.034	-56.5374	-134.987	88.4627	-47.5145	-152.042	85.1559	-21.7543	-120.342	71.6816	-20.6741	
201	1.675	-113.833	40.6895	-17.535	-96.8655	27.5346	-26.9623	-74.8082	24.5701	-36.5122	-55.3098	20.0885	-44.6596	-83.0587	74.0471	-76.8513	-67.3052	76.804	-100.828	-58.1671	79.8415	-120.345	-102.335	65.3622	-95.522	-117.664	35.6721	-103.895	-133.208	31.3664	-72.9487	-126.108	67.6963	-101.364	-140.028	38.6123	-97.0262	-144.366	40.3899	-62.4593	-142.705	73.1101	-98.7538	-151.661	43.3943	-90.8122	-151.626	47.5556	-60.3046	-135.073	94.7952	-51.8899	-152.175	87.7151	-20.5939	-120.812	76.1973	-21.4196	
202	1.68333	-117.555	45.3065	-16.5866	-98.2409	39.2602	-35.2067	-74.6092	33.9174	-41.6237	-54.2466	27.5914	-45.9345	-83.9838	79.0589	-76.1596	-68.168	83.3937	-100.54	-62.6067	88.9031	-123.404	-104.72	72.5982	-95.5796	-117.317	41.0653	-106.688	-136.266	38.3027	-77.0671	-124.78	72.4468	-99.9726	-136.619	45.186	-101.118	-144.201	43.5964	-67.6602	-144.336	75.8652	-100.108	-152.519	50.7809	-95.4732	-153.796	51.253	-61.3722	-136.459	98.0534	-52.6632	-151.999	93.6709	-23.0105	-121.271	80.993	-27.9455	
203	1.69167	-115.088	53.1829	-20.9604	-95.2608	43.8918	-35.6514	-71.852	40.6611	-43.1463	-55.3841	39.5036	-51.2554	-88.5789	89.046	-80.6383	-73.0644	91.4	-100.259	-66.4088	98.557	-126.256	-109.619	79.9275	-98.0591	-118.812	49.3973	-109.484	-133.036	42.3012	-77.6872	-132.588	79.9369	-102.609	-140.737	48.4249	-98.3896	-148.228	51.27	-65.3588	-148.863	84.6727	-98.8144	-154.131	54.4138	-93.9321	-153.822	56.4541	-64.5206	-143.044	105.169	-55.8055	-160.098	100.152	-25.4242	-121.884	85.522	-28.5686	
204	1.7	-118.86	62.1071	-24.7029	-97.0837	53.0286	-37.8443	-77.7263	50.3032	-46.6212	-53.0123	49.2161	-55.2034	-87.7175	97.7048	-85.4876	-80.5765	104.095	-108.272	-70.7905	109.73	-132.56	-115.746	88.4829	-102.794	-123.059	59.4359	-114.273	-139.092	51.4137	-80.7324	-133.76	85.7856	-103.856	-143.449	54.8819	-100.678	-149.833	55.2248	-70.8088	-153.322	90.5119	-101.383	-157.347	60.4361	-96.4819	-158.555	61.9929	-64.0896	-144.932	109.737	-54.7179	-159.326	102.414	-26.7428	-126.777	94.211	-29.6776	
205	1.70833	-115.805	67.5053	-25.7714	-100.055	59.5773	-38.6546	-74.7761	61.574	-52.0331	-54.6935	58.7889	-55.7593	-95.8172	105.546	-85.5271	-81.2855	111.406	-109.607	-77.1365	120.061	-133.163	-116.495	95.2079	-104.315	-127.733	66.3211	-116.393	-139.242	57.549	-80.6658	-140.416	91.6018	-109.665	-147.649	60.7172	-103.944	-147.568	59.1525	-73.0424	-154.204	92.8232	-105.11	-159.349	65.8266	-97.9425	-155.794	65.0006	-67.4867	-148.69	117.128	-55.9074	-166.88	108.436	-29.3471	-131.172	100.907	-32.4705	
206	1.71667	-117.988	74.6683	-29.2355	-99.8346	68.3647	-42.4255	-77.2678	71.1518	-54.7769	-52.2541	71.3122	-59.2562	-101.356	114.523	-89.6804	-86.3177	120.559	-113.985	-80.7326	128.646	-135.848	-119.933	100.066	-107.318	-130.911	71.7052	-117.203	-137.739	61.1587	-83.6031	-143.924	98.7131	-108.745	-146.677	66.1992	-106.702	-151.347	66.7051	-71.9277	-160.354	100.225	-103.483	-159.225	70.063	-99.0168	-154.462	71.971	-65.6826	-151.966	121.131	-57.3736	-169.785	111.752	-28.259	-130.442	105.015	-35.7528	
207	1.725	-120.256	80.2959	-28.3829	-99.4809	74.9742	-42.531	-75.1117	80.7007	-54.2858	-55.2358	80.4803	-57.8536	-101.674	121.102	-91.9455	-90.7805	126.246	-113.111	-86.7369	134.639	-136.265	-124.097	105.581	-109.253	-129.991	76.5713	-118.682	-139.796	65.3566	-83.0259	-141.607	100.816	-109.05	-150.312	71.3706	-108.493	-149.405	68.5849	-75.6526	-164.587	101.023	-107.473	-162.979	71.8564	-100.095	-160.245	77.4181	-66.6264	-156.049	123.456	-57.6999	-169.167	116.109	-30.8678	-135.638	109.294	-33.7272	
208	1.73333	-120.795	83.7251	-27.8638	-101.036	83.1096	-45.0555	-74.6644	86.946	-53.6876	-53.279	89.4648	-61.0447	-106.225	126.43	-93.4027	-92.0921	132.833	-115.15	-90.6436	140.701	-137.967	-126.708	111.772	-108.482	-129.623	80.2927	-118.077	-140.615	70.469	-81.5973	-148.13	106.419	-110.605	-146.057	73.392	-105.677	-149.724	73.5568	-72.6653	-161.468	104.7	-106.708	-160.264	75.4771	-98.0768	-159.217	78.1913	-70.3046	-159.57	125.758	-57.1675	-172.549	117.31	-30.6823	-138.346	114.392	-36.0927	
209	1.74167	-120.57	88.3805	-29.1946	-101.319	85.6552	-42.7905	-74.3091	93.8392	-56.1078	-56.3957	96.2939	-62.0712	-106.822	129.288	-90.8147	-97.5695	137.121	-116.254	-94.913	146.392	-141.407	-128.937	115.971	-109.941	-131.361	82.9942	-119.08	-135.582	72.0457	-83.5952	-145.351	110.177	-109.497	-145.539	77.9933	-109.118	-148.074	77.0387	-73.0251	-165.461	107.321	-107.651	-163.442	78.3073	-99.8233	-158.279	84.7721	-67.4406	-161.018	130.906	-58.5704	-168.069	121.205	-33.385	-138.841	119.252	-34.8212	
210	1.75	-119.103	94.6973	-31.384	-100.394	89.8762	-44.5772	-77.1735	96.962	-56.4839	-54.305	100.484	-61.9781	-103.026	135.189	-93.2676	-94.3449	142.782	-117.309	-95.6904	150.813	-139.61	-126.93	117.979	-111.556	-128.145	89.679	-120.286	-138.291	77.1158	-82.6772	-148.141	111.861	-111.474	-145.223	83.0201	-109.509	-147.619	79.9817	-75.5618	-166.722	112.051	-108.828	-162.09	81.4339	-100.524	-156.396	86.2352	-69.4024	-160.168	134.171	-56.3412	-173.28	121.47	-30.2386	-135.899	122.62	-38.4307	
211	1.75833	-121.634	97.7075	-31.7017	-99.6305	96.548	-47.6155	-74.1916	100.991	-56.3818	-57.9532	103.236	-62.8104	-102.983	139.866	-94.2751	-98.1533	146.303	-116.038	-95.5192	156.82	-142.453	-128.744	123.389	-111.065	-128.507	93.7381	-121.101	-138.657	80.9723	-83.9974	-147.33	114.054	-114.584	-146.215	83.4552	-108.122	-147.938	85.2506	-73.4504	-163.561	113.292	-110.683	-160.719	86.8118	-102.653	-156.013	87.929	-71.3157	-162.908	139.365	-61.2367	-173.126	127.458	-34.7591	-134.174	127.614	-36.8394	
212	1.76667	-116.905	102.197	-30.0582	-97.6131	98.1302	-41.6662	-75.0977	106.061	-56.7214	-57.8469	108.217	-63.9651	-105.275	143.356	-94.6659	-97.7819	150.464	-115.454	-94.0661	159.81	-140.171	-124.498	126.937	-108.007	-131.04	96.5967	-120.638	-135.425	83.7527	-85.682	-146.047	119.78	-112.242	-144.676	87.5474	-107.209	-147.667	86.2436	-77.2716	-164.489	119.745	-106.798	-159.95	89.5064	-103.088	-160.636	91.4473	-71.6487	-164.819	140.689	-60.6727	-174.915	130.466	-32.151	-139.967	130.223	-40.3938	
213	1.775	-123.078	105.908	-30.5154	-97.4405	102.27	-43.0599	-77.7014	111.352	-57.6044	-54.0281	115.67	-63.9426	-107.855	149.376	-96.5066	-98.7028	155.331	-116.102	-99.7419	163.913	-138.585	-126.899	129.059	-113.241	-128.545	101.668	-121.437	-138.984	87.3616	-87.9825	-148.136	124.291	-112.449	-145.226	92.0573	-109.59	-145.854	88.9164	-78.1095	-163.85	121.437	-108.019	-157.643	93.4282	-101.927	-157.955	95.2649	-68.3624	-165.957	144.792	-61.511	-175.585	132.662	-33.9699	-138.419	132.702	-36.555	
214	1.78333	-121.214	110.372	-30.6316	-98.0428	109.361	-46.7314	-76.8201	115.94	-59.0902	-58.5981	118.336	-65.1465	-107.087	153.907	-94.8565	-102.045	159.79	-116.448	-96.277	169.334	-141.054	-127.211	136.009	-109.339	-125.496	102.76	-118.447	-133.687	90.9867	-85.5955	-149.258	128.568	-112.07	-147.265	97.7309	-111.936	-148.527	94.6127	-76.3024	-164.96	126.051	-108.615	-159.307	96.4593	-100.672	-158.675	100.359	-67.1687	-162.946	150.611	-61.3587	-173.039	136.368	-33.3466	-140.251	139.993	-37.3017	
215	1.79167	-120.663	114.766	-33.9052	-97.8346	113.171	-46.2001	-75.7525	119.814	-58.6602	-58.8004	122.586	-64.7442	-109.987	155.732	-92.0701	-102.465	163.842	-114.956	-98.5748	173.012	-137.814	-128.578	138.465	-112.485	-126.427	110.395	-120.509	-134.171	94.965	-84.1181	-144.958	130.473	-114.415	-148.178	101.208	-111.122	-145.748	96.8766	-77.9682	-165.11	128.45	-110.767	-158.712	101.577	-103.389	-156.328	103.349	-68.5566	-164.537	152.204	-61.8307	-171.312	140.664	-30.6746	-137.523	144.498	-39.4149	
216	1.8	-121.418	117.299	-30.6107	-96.3459	118.294	-48.3538	-75.0636	123.743	-56.8098	-55.9866	129.747	-65.7478	-107.939	161.337	-93.1118	-100.359	169.68	-118.674	-96.3768	178.753	-137.807	-124.411	144.262	-109.037	-124.533	111.16	-119.474	-135.905	100.577	-85.2442	-145.798	137.288	-110.65	-145.874	104.921	-109.876	-144.6	101.729	-76.0143	-161.278	133.768	-109.542	-157.468	105.979	-104.112	-153.933	107.078	-70.0334	-160.25	157.159	-60.6422	-173.298	144.35	-35.0502	-138.376	146.866	-39.3295	
217	1.80833	-115.644	123.133	-32.7989	-94.9699	122.524	-47.3815	-75.6953	126.974	-56.087	-57.0225	133.785	-65.7538	-106.006	165.775	-94.2188	-101.044	172.272	-114.548	-93.7026	181.854	-138.417	-123.938	146.044	-113.754	-123.259	116.243	-119.976	-133.243	102.748	-86.3759	-143.905	137.663	-113.285	-145.494	108.448	-111.096	-142.858	105.519	-74.8294	-162.605	137.423	-107.869	-159.486	107.649	-103.759	-155.095	112.603	-69.8385	-160.323	160.651	-61.1534	-172.64	145.663	-34.1079	-138.527	150.416	-39.6234	
218	1.81667	-116.805	127.122	-33.7848	-96.5396	125.262	-45.7451	-74.5424	133.874	-56.9187	-54.6363	138.183	-63.9378	-108.602	169.072	-93.8445	-102.406	175.96	-115.649	-95.1046	185.969	-139.819	-126.512	150.873	-114.282	-125.539	121.579	-121.492	-132.304	107.166	-86.0128	-146.258	142.731	-112.373	-141.114	110.337	-109.654	-144.631	106.934	-78.5135	-165.231	140.173	-109.056	-153.668	111.434	-102.212	-152.954	114.414	-69.2738	-162.059	162.718	-61.5803	-174.143	150.963	-35.4884	-140.258	154.542	-37.4523	
219	1.825	-117.858	130.61	-33.652	-95.1692	129.95	-44.9425	-71.9842	141.209	-57.9367	-56.67	143.097	-63.9334	-109.417	173.265	-93.7134	-104.628	180.788	-116.836	-96.9171	190.801	-143.601	-127.111	154.63	-111.76	-126.713	124.742	-122.7	-132.989	109.702	-88.1884	-144.776	142.719	-115.309	-139.915	115.889	-111.469	-143.333	110.143	-76.1687	-161.041	142.298	-108.257	-156.864	113.567	-104.409	-152.085	116.267	-73.3084	-163.451	164.096	-63.6615	-171.964	154.134	-34.8352	-140.064	158.08	-41.2892	
220	1.83333	-116.599	135.002	-32.2989	-95.5572	135.749	-45.5136	-72.5234	144.111	-54.5968	-56.1282	151.566	-65.0355	-111.961	177.597	-95.3625	-103.794	186.047	-119.786	-99.1708	195.049	-140.392	-125.634	159.095	-110.583	-122.192	127.581	-121.981	-128.759	113.011	-86.4305	-145.407	146.844	-116.48	-143.302	117.957	-112.179	-143.15	113.001	-79.4155	-162.887	142.545	-113.422	-155.312	116.904	-105.802	-150.799	121.234	-72.43	-166.705	167.641	-66.1713	-170.425	155.514	-37.5621	-138.126	162.135	-41.5096	
